<?xml version="1.0" encoding="UTF-8"?>
<svg version="1.1" xmlns="http://www.w3.org/2000/svg" width="64" height="64">
<path d="M0 0 C21.12 0 42.24 0 64 0 C64 21.12 64 42.24 64 64 C42.88 64 21.76 64 0 64 C0 42.88 0 21.76 0 0 Z " fill="#8C6C65" transform="translate(0,0)"/>
<path d="M0 0 C5.28 0 10.56 0 16 0 C16 7.87128713 16 7.87128713 14.625 11.125 C14.36976562 11.74632812 14.11453125 12.36765625 13.8515625 13.0078125 C13.57054687 13.66523438 13.28953125 14.32265625 13 15 C12.33087947 16.66568302 11.66368053 18.33214198 11 20 C19.63251028 23.87511483 28.50671412 25.92460274 37.8203125 23.1640625 C40.33466671 22.14242582 40.33466671 22.14242582 41 19 C42.98 18.67 44.96 18.34 47 18 C47 20.33333333 47 22.66666667 47 25 C47.020625 26.0725 47.04125 27.145 47.0625 28.25 C47.00541539 31.67507661 46.83000867 34.67996533 46 38 C45.49339844 38.45632812 44.98679688 38.91265625 44.46484375 39.3828125 C42.79103627 40.9156245 42.79103627 40.9156245 42.7421875 43.2265625 C42.78601562 44.01804688 42.82984375 44.80953125 42.875 45.625 C42.94573847 47.08221251 42.99418758 48.54108313 43 50 C42 51 42 51 38.40234375 51.09765625 C36.91403133 51.0909822 35.42573568 51.07902183 33.9375 51.0625 C32.79958008 51.05573242 32.79958008 51.05573242 31.63867188 51.04882812 C29.75908129 51.0370068 27.87953101 51.01907078 26 51 C25.01 53.475 25.01 53.475 24 56 C19.72656908 56.36629408 17.51187196 55.40814077 14 53 C13.34 56.63 12.68 60.26 12 64 C8.04 64 4.08 64 0 64 C0 42.88 0 21.76 0 0 Z " fill="#B79966" transform="translate(0,0)"/>
<path d="M0 0 C3.3 0 6.6 0 10 0 C10 2.31 10 4.62 10 7 C11.11375 6.95875 12.2275 6.9175 13.375 6.875 C17 7 17 7 19 9 C19.33 8.34 19.66 7.68 20 7 C20.66 7 21.32 7 22 7 C22 6.34 22 5.68 22 5 C22.66 4.67 23.32 4.34 24 4 C23.01 2.68 22.02 1.36 21 0 C24.3 0 27.6 0 31 0 C31 20.46 31 40.92 31 62 C25.39 62 19.78 62 14 62 C13.49392167 59.57082401 12.9936643 57.14024551 12.52734375 54.703125 C12.10585553 52.54260759 11.62518848 50.39366492 11.125 48.25 C10.45680917 41.99213589 12.22319914 35.56081418 15 30 C17.31162419 28.50626891 19.11483921 28.06016612 21.8046875 27.55859375 C25.65116409 26.57986394 26.92866441 24.27404657 29 21 C29 19.68 29 18.36 29 17 C27.948125 17.2475 26.89625 17.495 25.8125 17.75 C22 18 22 18 19.5625 15.9375 C17.25523552 13.7446221 17.25523552 13.7446221 14.9140625 14.17578125 C12.91641944 14.69096288 10.95380171 15.33769434 9 16 C8.51787786 14.43840941 8.03944127 12.87568072 7.5625 11.3125 C7.29566406 10.44238281 7.02882813 9.57226562 6.75390625 8.67578125 C6.03655471 6.12974079 5.482459 3.5996577 5 1 C3.35 1 1.7 1 0 1 C0 0.67 0 0.34 0 0 Z " fill="#DAD6F7" transform="translate(33,2)"/>
<path d="M0 0 C0 2.33333333 0 4.66666667 0 7 C0.020625 8.0725 0.04125 9.145 0.0625 10.25 C0.00541539 13.67507661 -0.16999133 16.67996533 -1 20 C-1.50660156 20.45632812 -2.01320312 20.91265625 -2.53515625 21.3828125 C-4.20896373 22.9156245 -4.20896373 22.9156245 -4.2578125 25.2265625 C-4.21398438 26.01804687 -4.17015625 26.80953125 -4.125 27.625 C-4.05426153 29.08221251 -4.00581242 30.54108313 -4 32 C-5.86585954 33.86585954 -8.81236371 33.25966063 -11.3125 33.3125 C-13.03919922 33.36857422 -13.03919922 33.36857422 -14.80078125 33.42578125 C-18.64202212 32.91455383 -19.48108298 31.81143641 -22 29 C-25.64721696 28.19234122 -25.64721696 28.19234122 -29 28 C-30.62950412 23.87831311 -31.26264601 21.29299643 -30 17 C-34.93784652 15.02486139 -38.7627306 14.73813653 -44 15 C-44.99 15.495 -44.99 15.495 -46 16 C-46.34751969 13.08083462 -46.53280018 10.86804524 -44.95703125 8.30078125 C-43.15362765 6.11660035 -41.55587616 4.27793808 -39 3 C-37.01171875 3.05078125 -37.01171875 3.05078125 -34.6875 3.3125 C-33.92824219 3.39113281 -33.16898438 3.46976563 -32.38671875 3.55078125 C-30 4 -30 4 -27.61328125 5.02734375 C-24.44699245 6.20582792 -21.87180105 6.26575608 -18.5 6.25 C-17.3965625 6.25515625 -16.293125 6.2603125 -15.15625 6.265625 C-11.98560367 5.99878843 -9.79109365 5.51689872 -7 4 C-6.67 3.01 -6.34 2.02 -6 1 C-3 0 -3 0 0 0 Z " fill="#EEE2CD" transform="translate(47,18)"/>
<path d="M0 0 C2.13869011 4.72763076 2 7.52937874 2 13 C-9.55 13 -21.1 13 -33 13 C-32 4 -32 4 -31 2 C-29.9171875 2.495 -29.9171875 2.495 -28.8125 3 C-25.98302573 4.00603529 -23.97104534 4.16977402 -21 4 C-20.83371094 3.35675781 -20.66742188 2.71351562 -20.49609375 2.05078125 C-19 0 -19 0 -15.41015625 -0.64453125 C-13.96183892 -0.72033849 -12.5123284 -0.77552109 -11.0625 -0.8125 C-10.33353516 -0.85052734 -9.60457031 -0.88855469 -8.85351562 -0.92773438 C-5.59943179 -1.06791947 -3.11309796 -1.03769932 0 0 Z " fill="#645741" transform="translate(45,51)"/>
<path d="M0 0 C0.66 0.66 1.32 1.32 2 2 C2.845625 2.309375 3.69125 2.61875 4.5625 2.9375 C5.366875 3.288125 6.17125 3.63875 7 4 C7.33 4.99 7.66 5.98 8 7 C7.01 7 6.02 7 5 7 C5 7.66 5 8.32 5 9 C0.78121808 9.19622241 -2.17010894 8.80230168 -6 7 C-6 7.66 -6 8.32 -6 9 C-4.68 9 -3.36 9 -2 9 C-1.855625 10.134375 -1.71125 11.26875 -1.5625 12.4375 C-1.38828522 15.80777201 -1.38828522 15.80777201 0 17 C1.66617115 17.04063832 3.33388095 17.042721 5 17 C5.12375 16.195625 5.2475 15.39125 5.375 14.5625 C5.684375 13.2940625 5.684375 13.2940625 6 12 C6.66 11.67 7.32 11.34 8 11 C8 10.34 8 9.68 8 9 C8.99 9.33 9.98 9.66 11 10 C11.75 13.25 11.75 13.25 12 17 C10.2869589 19.41094674 8.95942429 20.58881816 6.25 21.75 C-0.73741433 22.52637937 -7.6558679 22.3740328 -14 19 C-16.05721537 15.10598519 -16.20071766 13.04373183 -15.375 8.75 C-13.91391007 5.82782015 -12.82545839 4.58932035 -10 3 C-9.34 3 -8.68 3 -8 3 C-7.67 2.34 -7.34 1.68 -7 1 C-5.5459375 1.0309375 -5.5459375 1.0309375 -4.0625 1.0625 C-1.12534105 1.35618499 -1.12534105 1.35618499 0 0 Z " fill="#BA9C69" transform="translate(29,1)"/>
<path d="M0 0 C5.28 0 10.56 0 16 0 C16 7.87128713 16 7.87128713 14.625 11.125 C13.67199841 13.3851001 12.88526032 15.43027381 12.25 17.8125 C10.35082401 21.13605798 7.47675429 21.62128709 4 23 C2.68 24.32 1.36 25.64 0 27 C0 18.09 0 9.18 0 0 Z " fill="#F4F3FA" transform="translate(0,0)"/>
<path d="M0 0 C1.09570312 0.00902344 2.19140625 0.01804688 3.3203125 0.02734375 C4.16335937 0.03894531 5.00640625 0.05054688 5.875 0.0625 C5.71 1.073125 5.545 2.08375 5.375 3.125 C4.79364274 7.0416686 4.79364274 7.0416686 4.875 10.9375 C4.875 11.96875 4.875 13 4.875 14.0625 C3.00914046 15.92835954 0.06263629 15.32216063 -2.4375 15.375 C-4.16419922 15.43107422 -4.16419922 15.43107422 -5.92578125 15.48828125 C-9.73900941 14.98078202 -10.74358837 13.98839143 -13.125 11.0625 C-13.99125 10.2890625 -13.99125 10.2890625 -14.875 9.5 C-16.125 8.0625 -16.125 8.0625 -16.125 5.0625 C-16.785 5.0625 -17.445 5.0625 -18.125 5.0625 C-18.125 4.0725 -18.125 3.0825 -18.125 2.0625 C-17.07699219 1.97162109 -17.07699219 1.97162109 -16.0078125 1.87890625 C-15.09773438 1.79511719 -14.18765625 1.71132813 -13.25 1.625 C-12.34507813 1.54378906 -11.44015625 1.46257813 -10.5078125 1.37890625 C-0.11429961 -0.00121595 -0.11429961 -0.00121595 0 0 Z " fill="#F0E3CB" transform="translate(38.125,35.9375)"/>
<path d="M0 0 C0.680625 0.825 1.36125 1.65 2.0625 2.5 C4.84478007 5.36068704 4.84478007 5.36068704 8.8125 5.3125 C9.864375 5.209375 10.91625 5.10625 12 5 C12.33 3.68 12.66 2.36 13 1 C13.71495327 7.79205607 13.71495327 7.79205607 11.8046875 11.01953125 C9.18934505 14.14085704 6.86075821 16.52719224 3 18 C0.25 18.125 0.25 18.125 -2 18 C-2.50509208 20.24886238 -3.00389179 22.49913869 -3.5 24.75 C-3.7784375 26.00296875 -4.056875 27.2559375 -4.34375 28.546875 C-5.12446903 32.06912245 -5.12446903 32.06912245 -5 36 C-5.66 36 -6.32 36 -7 36 C-8.45803513 27.93689005 -8.45803513 27.93689005 -6.625 24.1875 C-6.08875 23.465625 -5.5525 22.74375 -5 22 C-3.67709036 18.39206461 -3.9307815 14.8070175 -4 11 C-4 7.88772805 -3.54372951 5.05847848 -3 2 C-2.01 2 -1.02 2 0 2 C0 1.34 0 0.68 0 0 Z " fill="#8C7450" transform="translate(50,14)"/>
<path d="M0 0 C3.3 0 6.6 0 10 0 C10 2.31 10 4.62 10 7 C11.11375 6.95875 12.2275 6.9175 13.375 6.875 C17 7 17 7 19 9 C19.33 8.34 19.66 7.68 20 7 C20.66 7 21.32 7 22 7 C22 6.34 22 5.68 22 5 C25.60271909 5.97370786 26.79777091 6.6899154 28.875 9.875 C29.98579669 12.96054636 30.24791579 14.05038085 29 17 C25.8125 17.75 25.8125 17.75 22 18 C21.195625 17.319375 20.39125 16.63875 19.5625 15.9375 C17.25523552 13.7446221 17.25523552 13.7446221 14.9140625 14.17578125 C12.91641944 14.69096288 10.95380171 15.33769434 9 16 C8.51787786 14.43840941 8.03944127 12.87568072 7.5625 11.3125 C7.29566406 10.44238281 7.02882813 9.57226562 6.75390625 8.67578125 C6.03655471 6.12974079 5.482459 3.5996577 5 1 C3.35 1 1.7 1 0 1 C0 0.67 0 0.34 0 0 Z " fill="#B69967" transform="translate(33,2)"/>
<path d="M0 0 C2 4 2 4 2 6 C2.5775 6.268125 3.155 6.53625 3.75 6.8125 C6.03707749 8.01956868 7.93467141 9.45100356 10 11 C11.32 11.66 12.64 12.32 14 13 C13.34 16.3 12.68 19.6 12 23 C8.04 23 4.08 23 0 23 C0 15.41 0 7.82 0 0 Z " fill="#CBC6EA" transform="translate(0,41)"/>
<path d="M0 0 C2.13869011 4.72763076 2 7.52937874 2 13 C-9.55 13 -21.1 13 -33 13 C-33 12.67 -33 12.34 -33 12 C-32.44014404 11.98541748 -31.88028809 11.97083496 -31.3034668 11.95581055 C-28.76411863 11.88128648 -26.22607922 11.78464419 -23.6875 11.6875 C-22.80642578 11.66494141 -21.92535156 11.64238281 -21.01757812 11.61914062 C-20.17001953 11.58369141 -19.32246094 11.54824219 -18.44921875 11.51171875 C-17.66893311 11.48553467 -16.88864746 11.45935059 -16.0847168 11.43237305 C-13.51752948 10.89993497 -12.72639215 9.91561904 -11 8 C-8.3125 6.8125 -8.3125 6.8125 -6 6 C-6.99 5.67 -7.98 5.34 -9 5 C-9 3.68 -9 2.36 -9 1 C-11.31 1 -13.62 1 -16 1 C-16 0.67 -16 0.34 -16 0 C-13.89651926 -0.19504458 -11.79217415 -0.38078496 -9.6875 -0.5625 C-8.51574219 -0.66691406 -7.34398437 -0.77132812 -6.13671875 -0.87890625 C-3 -1 -3 -1 0 0 Z " fill="#6C604E" transform="translate(45,51)"/>
<path d="M0 0 C1.22589844 0.15275391 1.22589844 0.15275391 2.4765625 0.30859375 C3.41628906 0.43427734 3.41628906 0.43427734 4.375 0.5625 C5.5 5.3125 5.5 5.3125 4.375 7.5625 C3.715 7.5625 3.055 7.5625 2.375 7.5625 C2.375 8.8825 2.375 10.2025 2.375 11.5625 C1.53195312 11.55089844 0.68890625 11.53929687 -0.1796875 11.52734375 C-1.27539062 11.51832031 -2.37109375 11.50929688 -3.5 11.5 C-5.13582031 11.48259766 -5.13582031 11.48259766 -6.8046875 11.46484375 C-9.57677546 11.36505697 -9.57677546 11.36505697 -11.625 12.5625 C-11.97251969 9.64333462 -12.15780018 7.43054524 -10.58203125 4.86328125 C-7.03326923 0.56522051 -5.42406438 -0.69737971 0 0 Z " fill="#EFE4CF" transform="translate(12.625,21.4375)"/>
<path d="M0 0 C0 1.65 0 3.3 0 5 C-1.32 4.67 -2.64 4.34 -4 4 C-3.67 4.33 -3.34 4.66 -3 5 C-3.4640625 5.8971875 -3.4640625 5.8971875 -3.9375 6.8125 C-5.10209704 9.08956772 -5.10209704 9.08956772 -6 12 C-6.74765625 12.12117188 -7.4953125 12.24234375 -8.265625 12.3671875 C-9.25046875 12.53476562 -10.2353125 12.70234375 -11.25 12.875 C-12.22453125 13.03742187 -13.1990625 13.19984375 -14.203125 13.3671875 C-16.97444238 13.86907274 -16.97444238 13.86907274 -19.171875 15.1328125 C-21 16 -21 16 -24 15 C-24.33 14.01 -24.66 13.02 -25 12 C-24.34 12 -23.68 12 -23 12 C-23 11.34 -23 10.68 -23 10 C-22.29875 10.268125 -21.5975 10.53625 -20.875 10.8125 C-17.7503444 11.33424126 -17.7503444 11.33424126 -15 8.6875 C-14.50113281 8.21957031 -14.00226562 7.75164063 -13.48828125 7.26953125 C-11.53623656 5.60440127 -9.36320584 4.94528234 -7 4 C-6.67 3.01 -6.34 2.02 -6 1 C-3 0 -3 0 0 0 Z " fill="#EDE1D0" transform="translate(47,18)"/>
<path d="M0 0 C0.99 0.33 1.98 0.66 3 1 C1.7934375 1.7734375 1.7934375 1.7734375 0.5625 2.5625 C-2.66447078 5.63205757 -2.74896257 7.64868459 -3 12 C-2.67 11.67 -2.34 11.34 -2 11 C5.45864662 10.63909774 5.45864662 10.63909774 9 13 C6.69 13.33 4.38 13.66 2 14 C1.87625 14.969375 1.7525 15.93875 1.625 16.9375 C1.41875 17.948125 1.2125 18.95875 1 20 C0.34 20.33 -0.32 20.66 -1 21 C-0.74433121 24.45152861 0.26197074 25.24488569 2.875 27.6875 C5.80898145 30.10861631 5.80898145 30.10861631 9 31 C8.67 31.66 8.34 32.32 8 33 C-2.03864573 28.33086245 -2.03864573 28.33086245 -4.11328125 23.30078125 C-5.7265527 17.29543159 -6.74225064 9.48450129 -3.87890625 3.7578125 C-2.5 2.125 -2.5 2.125 0 0 Z " fill="#958268" transform="translate(5,21)"/>
<path d="M0 0 C9.24 0 18.48 0 28 0 C28.33 1.32 28.66 2.64 29 4 C28.34 3.67 27.68 3.34 27 3 C25.0018949 2.90350061 23.0004282 2.87019128 21 2.875 C19.9275 2.87242188 18.855 2.86984375 17.75 2.8671875 C15.03817948 2.8127659 15.03817948 2.8127659 13 4 C11.29297265 4.06996014 9.58331997 4.08440154 7.875 4.0625 C6.96492188 4.05347656 6.05484375 4.04445313 5.1171875 4.03515625 C4.41851562 4.02355469 3.71984375 4.01195312 3 4 C3 4.99 3 5.98 3 7 C3.66 7 4.32 7 5 7 C5.33 8.65 5.66 10.3 6 12 C4.35 12 2.7 12 1 12 C-0.98815787 7.08808055 -0.93446046 5.60676274 0 0 Z " fill="#D4C5AA" transform="translate(17,34)"/>
<path d="M0 0 C3.3 0 6.6 0 10 0 C10 2.31 10 4.62 10 7 C12.31 7 14.62 7 17 7 C17.93423645 10.01031744 18.04449911 10.86650268 17 14 C15.15234375 14.73046875 15.15234375 14.73046875 12.9375 15.1875 C12.20402344 15.34605469 11.47054687 15.50460938 10.71484375 15.66796875 C10.14894531 15.77753906 9.58304688 15.88710938 9 16 C8.51787786 14.43840941 8.03944127 12.87568072 7.5625 11.3125 C7.29566406 10.44238281 7.02882813 9.57226562 6.75390625 8.67578125 C6.03655471 6.12974079 5.482459 3.5996577 5 1 C3.35 1 1.7 1 0 1 C0 0.67 0 0.34 0 0 Z " fill="#E7E0E9" transform="translate(33,2)"/>
<path d="M0 0 C3.3 0.33 6.6 0.66 10 1 C10.33 2.32 10.66 3.64 11 5 C12.32 5.33 13.64 5.66 15 6 C14.36191406 6.18175781 13.72382812 6.36351562 13.06640625 6.55078125 C11.82697266 6.92783203 11.82697266 6.92783203 10.5625 7.3125 C9.32693359 7.67794922 9.32693359 7.67794922 8.06640625 8.05078125 C7.38449219 8.36402344 6.70257813 8.67726563 6 9 C5.67 9.99 5.34 10.98 5 12 C4.67 11.01 4.34 10.02 4 9 C4.474375 8.566875 4.94875 8.13375 5.4375 7.6875 C7.23686957 5.97690387 7.23686957 5.97690387 8 3 C8.33 2.67 8.66 2.34 9 2 C6.69 2 4.38 2 2 2 C1.67 2.99 1.34 3.98 1 5 C-2 7 -2 7 -5.5625 7.375 C-9.07928507 7.59722815 -9.07928507 7.59722815 -10.4375 10.0625 C-10.7159375 11.0215625 -10.7159375 11.0215625 -11 12 C-11.99 12 -12.98 12 -14 12 C-13.34 8.7 -12.68 5.4 -12 2 C-10.9171875 2.495 -10.9171875 2.495 -9.8125 3 C-6.98302573 4.00603529 -4.97104534 4.16977402 -2 4 C-1.34 2.68 -0.68 1.36 0 0 Z " fill="#584933" transform="translate(26,51)"/>
<path d="M0 0 C0.66 0.33 1.32 0.66 2 1 C2.625 3.0625 2.625 3.0625 3 5 C4.32 4.67 5.64 4.34 7 4 C7 4.66 7 5.32 7 6 C5.02 6.33 3.04 6.66 1 7 C0.9071875 7.928125 0.9071875 7.928125 0.8125 8.875 C0 11 0 11 -2.15625 12.11328125 C-10.31996213 14.65883435 -18.35657416 13.35237975 -26 10 C-27.98956785 9.60919203 -29.98806977 9.25149128 -32 9 C-31.01 8.34 -30.02 7.68 -29 7 C-27.78715124 3.94570927 -27.78715124 3.94570927 -27 1 C-26.67 1 -26.34 1 -26 1 C-25.67 2.98 -25.34 4.96 -25 7 C-16.45390779 9.94209732 -9.71436763 11.48574705 -1 8 C-0.26665571 4.02245872 -0.26665571 4.02245872 0 0 Z " fill="#887971" transform="translate(40,12)"/>
<path d="M0 0 C2.5625 2 2.5625 2 4 4 C3.67 4.66 3.34 5.32 3 6 C2.34 5.67 1.68 5.34 1 5 C1 5.66 1 6.32 1 7 C0.34 7 -0.32 7 -1 7 C-1.66 8.32 -2.32 9.64 -3 11 C-3.33 10.01 -3.66 9.02 -4 8 C-6.31 7.67 -8.62 7.34 -11 7 C-11 5.02 -11 3.04 -11 1 C-7.55789151 -0.72105424 -3.76366353 -0.51474617 0 0 Z " fill="#AD9167" transform="translate(54,2)"/>
<path d="M0 0 C3.3 0 6.6 0 10 0 C10.08074862 3.77125953 10.1403818 7.54079993 10.1875 11.3125 C10.21263672 12.38435547 10.23777344 13.45621094 10.26367188 14.56054688 C10.27817383 16.10258789 10.27817383 16.10258789 10.29296875 17.67578125 C10.31653442 19.0975769 10.31653442 19.0975769 10.34057617 20.5480957 C9.94475643 23.39771408 9.22175281 24.24976105 7 26 C6.34 25.67 5.68 25.34 5 25 C5.495 24.525625 5.99 24.05125 6.5 23.5625 C8.75912464 19.70316207 8.88297571 16.35925803 8 12 C6.31732982 8.73242946 4.24679798 5.89871863 2 3 C1.34 2.01 0.68 1.02 0 0 Z " fill="#F1EDF5" transform="translate(54,2)"/>
<path d="M0 0 C4.08378283 0.74250597 8.01939223 1.82923301 12 3 C12.625 5.875 12.625 5.875 13 9 C11 11 11 11 8.5 11.25 C6 11 6 11 4 9 C3.875 5.375 3.875 5.375 4 2 C2.68 2 1.36 2 0 2 C0 1.34 0 0.68 0 0 Z " fill="#6F5432" transform="translate(23,8)"/>
<path d="M0 0 C10.89 0 21.78 0 33 0 C33 0.66 33 1.32 33 2 C10.19872014 3.19388403 10.19872014 3.19388403 1 3 C0.67 2.01 0.34 1.02 0 0 Z " fill="#8163CC" transform="translate(31,0)"/>
<path d="M0 0 C2.585396 3.80205294 1.70275658 6.62729242 1 11 C1.34659295 13.32158065 1.34659295 13.32158065 2 15 C3.11375 14.938125 4.2275 14.87625 5.375 14.8125 C7.169375 14.9053125 7.169375 14.9053125 9 15 C9.99 16.485 9.99 16.485 11 18 C10.01 18 9.02 18 8 18 C8 17.34 8 16.68 8 16 C5.69 16.33 3.38 16.66 1 17 C0.62875 16.05125 0.2575 15.1025 -0.125 14.125 C-1.73995905 10.74446192 -1.73995905 10.74446192 -5.1875 9.625 C-6.5796875 9.315625 -6.5796875 9.315625 -8 9 C-7.67 8.34 -7.34 7.68 -7 7 C-4.03 7.495 -4.03 7.495 -1 8 C-1.33 6.35 -1.66 4.7 -2 3 C-1.34 3 -0.68 3 0 3 C0 2.01 0 1.02 0 0 Z " fill="#87704C" transform="translate(16,31)"/>
<path d="M0 0 C1.68762851 1.6454378 3.3540349 3.31288577 5 5 C5 5.33 5 5.66 5 6 C3.35 6 1.7 6 0 6 C-0.50509208 8.24886238 -1.00389179 10.49913869 -1.5 12.75 C-1.7784375 14.00296875 -2.056875 15.2559375 -2.34375 16.546875 C-3.12446903 20.06912245 -3.12446903 20.06912245 -3 24 C-3.66 24 -4.32 24 -5 24 C-6.05513359 18.16498413 -6.44059435 15.03801316 -3 10 C-1.86246243 6.7047118 -0.92039889 3.36174063 0 0 Z " fill="#9C9285" transform="translate(48,26)"/>
<path d="M0 0 C0.33 0 0.66 0 1 0 C1.33 1.98 1.66 3.96 2 6 C7.65755469 7.80996216 13.0870696 9.35729017 19 10 C19 10.33 19 10.66 19 11 C10.49077472 11.40735653 3.1609778 10.43092956 -5 8 C-4.01 7.34 -3.02 6.68 -2 6 C-0.78715124 2.94570927 -0.78715124 2.94570927 0 0 Z " fill="#807065" transform="translate(13,13)"/>
<path d="M0 0 C1.7015625 0.2475 1.7015625 0.2475 3.4375 0.5 C7.97060294 1.07576084 12.43747238 1.09505266 17 1 C13.47352614 3.35098257 11.26934328 3.38204378 7.15625 3.65625 C4.70936243 3.89274238 4.70936243 3.89274238 2 6 C1.01 5.67 0.02 5.34 -1 5 C-1.33 4.01 -1.66 3.02 -2 2 C-1.34 2 -0.68 2 0 2 C0 1.34 0 0.68 0 0 Z " fill="#C0B4B1" transform="translate(24,28)"/>
<path d="M0 0 C1.98 0 3.96 0 6 0 C5.60000283 2.31998359 5.09432121 3.86323424 3.75 5.8125 C2 7 2 7 -0.6875 6.6875 C-1.450625 6.460625 -2.21375 6.23375 -3 6 C-2 4 -1 2 0 0 Z " fill="#AD8D5C" transform="translate(54,22)"/>
<path d="M0 0 C3.96 0 7.92 0 12 0 C11.67 0.66 11.34 1.32 11 2 C9.02 2 7.04 2 5 2 C5 2.66 5 3.32 5 4 C2.5 5.625 2.5 5.625 0 7 C-0.93423645 3.98968256 -1.04449911 3.13349732 0 0 Z " fill="#A178A2" transform="translate(16,0)"/>
<path d="M0 0 C0.99 0 1.98 0 3 0 C4.25 2.5625 4.25 2.5625 5 6 C3.97381014 8.65010886 2.61515439 10.62477296 1 13 C0.67 13 0.34 13 0 13 C0 8.71 0 4.42 0 0 Z " fill="#C0BAEA" transform="translate(0,14)"/>
<path d="M0 0 C0.66 0 1.32 0 2 0 C2.66 1.32 3.32 2.64 4 4 C4.66 4 5.32 4 6 4 C6.33 3.34 6.66 2.68 7 2 C7.33 2.66 7.66 3.32 8 4 C8.99 4.66 9.98 5.32 11 6 C10.01 7.32 9.02 8.64 8 10 C7.67 9.01 7.34 8.02 7 7 C4.69 6.67 2.38 6.34 0 6 C0 4.02 0 2.04 0 0 Z " fill="#6D5A3A" transform="translate(43,3)"/>
<path d="M0 0 C0.99 0.66 1.98 1.32 3 2 C2.01 2 1.02 2 0 2 C0.66 3.32 1.32 4.64 2 6 C2.66 6 3.32 6 4 6 C4.33 7.65 4.66 9.3 5 11 C3.35 11 1.7 11 0 11 C-2.21538462 5.70769231 -2.21538462 5.70769231 -1.125 2.125 C-0.75375 1.42375 -0.3825 0.7225 0 0 Z " fill="#CBB9A0" transform="translate(18,35)"/>
<path d="M0 0 C1.32 0.33 2.64 0.66 4 1 C4.33 2.32 4.66 3.64 5 5 C2.6875 6.5625 2.6875 6.5625 0 8 C-0.99 7.67 -1.98 7.34 -3 7 C-2.67 6.34 -2.34 5.68 -2 5 C-1.67 5 -1.34 5 -1 5 C-0.67 3.35 -0.34 1.7 0 0 Z " fill="#B59A6F" transform="translate(48,17)"/>
<path d="M0 0 C1.98 0 3.96 0 6 0 C5.34 1.65 4.68 3.3 4 5 C5.98 5 7.96 5 10 5 C8.75 6.5625 8.75 6.5625 7 8 C4.02667109 7.71225849 1.61190363 6.39923409 -1 5 C-0.67 3.35 -0.34 1.7 0 0 Z " fill="#826C4D" transform="translate(48,23)"/>
<path d="M0 0 C2.47385671 2.47385671 2.28571102 3.97504228 2.32226562 7.36132812 C2.31743164 8.3890332 2.31743164 8.3890332 2.3125 9.4375 C2.32861328 10.11876953 2.34472656 10.80003906 2.36132812 11.50195312 C2.3662474 16.52453743 2.3662474 16.52453743 0.48046875 18.97265625 C-0.25236328 19.48119141 -0.25236328 19.48119141 -1 20 C-1.66 19.67 -2.32 19.34 -3 19 C-2.505 18.525625 -2.01 18.05125 -1.5 17.5625 C0.69189114 13.81801931 0.4068872 10.24884138 0 6 C-0.33 5.01 -0.66 4.02 -1 3 C-0.67 2.01 -0.34 1.02 0 0 Z " fill="#DFD9E3" transform="translate(62,8)"/>
<path d="M0 0 C1.10868317 3.32604951 1.54177532 6.53058454 2 10 C0.68 10.33 -0.64 10.66 -2 11 C-2.33 8.36 -2.66 5.72 -3 3 C-3.99 2.67 -4.98 2.34 -6 2 C-4.35 2 -2.7 2 -1 2 C-0.67 1.34 -0.34 0.68 0 0 Z " fill="#DCD8F0" transform="translate(6,11)"/>
<path d="M0 0 C4.95 0 9.9 0 15 0 C12.31907309 2.68092691 10.60832637 2.38670257 6.875 2.625 C5.77929688 2.69976562 4.68359375 2.77453125 3.5546875 2.8515625 C2.71164063 2.90054687 1.86859375 2.94953125 1 3 C0.67 2.01 0.34 1.02 0 0 Z " fill="#AC78E4" transform="translate(31,0)"/>
<path d="M0 0 C1.61949011 2.57213134 2.04408751 3.67669159 1.625 6.75 C1.41875 7.4925 1.2125 8.235 1 9 C-1.97 9 -4.94 9 -8 9 C-7.67 8.34 -7.34 7.68 -7 7 C-4.03 7.495 -4.03 7.495 -1 8 C-1.33 6.35 -1.66 4.7 -2 3 C-1.34 3 -0.68 3 0 3 C0 2.01 0 1.02 0 0 Z " fill="#907752" transform="translate(16,31)"/>
<path d="M0 0 C2.67857172 0.36196915 4.60980914 0.73987276 6.875 2.25 C8 4 8 4 7.6875 6.6875 C7.460625 7.450625 7.23375 8.21375 7 9 C5.79371992 6.66785852 4.8345262 4.50357861 4 2 C2.68 2 1.36 2 0 2 C0 1.34 0 0.68 0 0 Z " fill="#896B45" transform="translate(23,8)"/>
<path d="M0 0 C0.33 1.65 0.66 3.3 1 5 C-0.98 5 -2.96 5 -5 5 C-5 3.68 -5 2.36 -5 1 C-2 0 -2 0 0 0 Z " fill="#EAE9F0" transform="translate(49,11)"/>
<path d="M0 0 C1.32 1.65 2.64 3.3 4 5 C3.67 5.66 3.34 6.32 3 7 C2.01 6.34 1.02 5.68 0 5 C0 5.66 0 6.32 0 7 C-0.99 6.67 -1.98 6.34 -3 6 C-3 5.01 -3 4.02 -3 3 C-2.01 3 -1.02 3 0 3 C0 2.01 0 1.02 0 0 Z " fill="#9B8662" transform="translate(37,5)"/>
<path d="M0 0 C0.33 0 0.66 0 1 0 C1 4.29 1 8.58 1 13 C0.34 13 -0.32 13 -1 13 C-1.2236337 11.58566794 -1.42826476 10.16832382 -1.625 8.75 C-1.74101563 7.96109375 -1.85703125 7.1721875 -1.9765625 6.359375 C-2.00319395 3.67847541 -1.36592084 2.27305911 0 0 Z " fill="#ABA193" transform="translate(44,37)"/>
<path d="M0 0 C3.3 0 6.6 0 10 0 C9.67 1.32 9.34 2.64 9 4 C9 3.34 9 2.68 9 2 C6.69 2.33 4.38 2.66 2 3 C1.34 2.01 0.68 1.02 0 0 Z " fill="#D6CBE7" transform="translate(54,2)"/>
<path d="M0 0 C0 1.65 0 3.3 0 5 C-1.98 4.34 -3.96 3.68 -6 3 C-6 2.34 -6 1.68 -6 1 C-3 0 -3 0 0 0 Z " fill="#E5DCC2" transform="translate(47,18)"/>
<path d="M0 0 C1.98 0 3.96 0 6 0 C6.33 1.32 6.66 2.64 7 4 C6.34 4 5.68 4 5 4 C5 3.34 5 2.68 5 2 C3.35 2.33 1.7 2.66 0 3 C0 2.01 0 1.02 0 0 Z " fill="#DFDBDB" transform="translate(44,9)"/>
<path d="M0 0 C0.99 0.66 1.98 1.32 3 2 C1.35 2 -0.3 2 -2 2 C-2 2.99 -2 3.98 -2 5 C-3.32 4.67 -4.64 4.34 -6 4 C-3.94766315 1.7522025 -2.99332739 0.9977758 0 0 Z " fill="#5B4E38" transform="translate(37,58)"/>
<path d="M0 0 C2.97 0.495 2.97 0.495 6 1 C5.34 2.65 4.68 4.3 4 6 C3.67 5.34 3.34 4.68 3 4 C2.01 3.67 1.02 3.34 0 3 C0 2.01 0 1.02 0 0 Z " fill="#5A4D37" transform="translate(26,57)"/>
</svg>
